<?xml version="1.0" encoding="UTF-8" standalone="no"?>
<!DOCTYPE svg PUBLIC "-//W3C//DTD SVG 1.1//EN" "http://www.w3.org/Graphics/SVG/1.1/DTD/svg11.dtd">
<!-- Generiert durch Microsoft Visio, SVG Export overview-eitm.svg Page-1 -->
<svg xmlns="http://www.w3.org/2000/svg" xmlns:xlink="http://www.w3.org/1999/xlink" xmlns:ev="http://www.w3.org/2001/xml-events"
		xmlns:v="http://schemas.microsoft.com/visio/2003/SVGExtensions/" width="4.52333in" height="2.96083in"
		viewBox="0 0 325.68 213.18" xml:space="preserve" color-interpolation-filters="sRGB" class="st13">
	<v:documentProperties v:langID="1033" v:viewMarkup="false">
		<v:userDefs>
			<v:ud v:nameU="msvNoAutoConnect" v:val="VT0(1):26"/>
		</v:userDefs>
	</v:documentProperties>

	<style type="text/css">
	<![CDATA[
		.st1 {fill:#ffffff;stroke:#000000;stroke-linecap:round;stroke-linejoin:round;stroke-width:0.24}
		.st2 {fill:#000000;font-family:Calibri;font-size:0.75em}
		.st3 {font-size:1em}
		.st4 {marker-end:url(#mrkr12-56);stroke:#000000;stroke-linecap:round;stroke-linejoin:round;stroke-width:0.24}
		.st5 {fill:#000000;fill-opacity:1;stroke:#000000;stroke-opacity:1;stroke-width:0.08695652173913}
		.st6 {fill:#ffffff}
		.st7 {stroke:#000000;stroke-linecap:round;stroke-linejoin:round;stroke-width:0.24}
		.st8 {fill:#ffffff;stroke:none;stroke-linecap:butt;stroke-width:7.2}
		.st9 {fill:#000000;font-family:Calibri;font-size:0.75em;font-weight:bold}
		.st10 {fill:none}
		.st11 {fill:none;stroke:none;stroke-linecap:round;stroke-linejoin:round;stroke-width:0.24}
		.st12 {fill:#000000;font-family:Calibri;font-size:0.666664em}
		.st13 {fill:none;fill-rule:evenodd;font-size:12px;overflow:visible;stroke-linecap:square;stroke-miterlimit:3}
	]]>
	</style>

	<defs id="Markers">
		<g id="lend12">
			<path d="M 3 1 L 0 0 L 3 -1 " style="stroke-linecap:round;stroke-linejoin:round;fill:none"/>
		</g>
		<marker id="mrkr12-56" class="st5" v:arrowType="12" v:arrowSize="2" orient="auto" markerUnits="strokeWidth"
				overflow="visible">
			<use xlink:href="#lend12" transform="scale(-11.5,-11.5) "/>
		</marker>
	</defs>
	<g v:mID="0" v:index="1" v:groupContext="foregroundPage">
		<title>Page-1</title>
		<v:pageProperties v:drawingScale="1" v:pageScale="1" v:drawingUnits="19" v:shadowOffsetX="9" v:shadowOffsetY="-9"/>
		<v:layer v:name="Verbinder" v:index="0"/>
		<g id="group5-1" transform="translate(111.09,238.248) scale(1,-1)" v:mID="5" v:groupContext="group">
			<v:userDefs>
				<v:ud v:nameU="F" v:val="VT0(1):26"/>
				<v:ud v:nameU="Format" v:val="VT0(0):26"/>
				<v:ud v:nameU="OldNew" v:val="VT0(0.25):26"/>
			</v:userDefs>
			<title>State, Act.Region.5</title>
			<g id="shape6-2" v:mID="6" v:groupContext="shape" transform="translate(0,-13.3951)">
				<title>Tabelle.6</title>
				<v:userDefs>
					<v:ud v:nameU="LinePattern" v:val="VT0(0):26"/>
				</v:userDefs>
			</g>
			<g id="shape7-4" v:mID="7" v:groupContext="shape" transform="translate(0,-13.3951)">
				<title>Tabelle.7</title>
				<v:userDefs>
					<v:ud v:nameU="LinePattern" v:val="VT0(0):26"/>
				</v:userDefs>
			</g>
			<g id="shape8-6" v:mID="8" v:groupContext="shape">
				<title>Tabelle.8</title>
				<desc>Preprocess Corpus</desc>
				<v:userDefs>
					<v:ud v:nameU="LinePattern" v:val="VT0(0):26"/>
				</v:userDefs>
				<v:textBlock v:margins="rect(4,4,4,4)"/>
				<v:textRect cx="51.75" cy="206.482" width="103.5" height="13.3951"/>
				<path d="M0 209.83 A3.34878 3.34878 -180 0 0 3.35 213.18 L100.15 213.18 A3.34878 3.34878 -180 0 0 103.5 209.83 L103.5
							 203.13 A3.34878 3.34878 -180 0 0 100.15 199.78 L3.35 199.78 A3.34878 3.34878 -180 0 0 0 203.13 L0 209.83
							 Z" class="st1"/>
				<text x="20.85" y="-203.78" transform="scale(1,-1)" class="st2" v:langID="1031"><v:paragraph v:horizAlign="1"/><v:tabList/>Preprocess Corpus</text>			</g>
		</g>
		<g id="group9-9" transform="translate(111.09,265.248) scale(1,-1)" v:mID="9" v:groupContext="group">
			<v:userDefs>
				<v:ud v:nameU="F" v:val="VT0(1):26"/>
				<v:ud v:nameU="Format" v:val="VT0(0):26"/>
				<v:ud v:nameU="OldNew" v:val="VT0(0.25):26"/>
			</v:userDefs>
			<title>State, Act.Region.9</title>
			<g id="shape10-10" v:mID="10" v:groupContext="shape" transform="translate(0,-24.9598)">
				<title>Tabelle.10</title>
				<v:userDefs>
					<v:ud v:nameU="LinePattern" v:val="VT0(0):26"/>
				</v:userDefs>
			</g>
			<g id="shape11-12" v:mID="11" v:groupContext="shape" transform="translate(0,-24.9598)">
				<title>Tabelle.11</title>
				<v:userDefs>
					<v:ud v:nameU="LinePattern" v:val="VT0(0):26"/>
				</v:userDefs>
			</g>
			<g id="shape12-14" v:mID="12" v:groupContext="shape">
				<title>Tabelle.12</title>
				<desc>Perform Topic Modeling</desc>
				<v:userDefs>
					<v:ud v:nameU="LinePattern" v:val="VT0(0):26"/>
				</v:userDefs>
				<v:textBlock v:margins="rect(4,4,4,4)"/>
				<v:textRect cx="51.75" cy="200.7" width="103.5" height="24.9598"/>
				<path d="M0 206.94 A6.23996 6.23996 -180 0 0 6.24 213.18 L97.26 213.18 A6.23996 6.23996 -180 0 0 103.5 206.94 L103.5
							 194.46 A6.23996 6.23996 -180 0 0 97.26 188.22 L6.24 188.22 A6.23996 6.23996 -180 0 0 0 194.46 L0 206.94
							 Z" class="st1"/>
				<text x="36.71" y="-203.4" transform="scale(1,-1)" class="st2" v:langID="1031"><v:paragraph v:horizAlign="1"/><v:tabList/>Perform<v:lf/><tspan
							x="23.5" dy="1.2em" class="st3">Topic Modeling</tspan></text>			</g>
		</g>
		<g id="group20-18" transform="translate(111.09,331.021) scale(1,-1)" v:mID="20" v:groupContext="group">
			<v:userDefs>
				<v:ud v:nameU="F" v:val="VT0(1):26"/>
				<v:ud v:nameU="Format" v:val="VT0(0):26"/>
				<v:ud v:nameU="OldNew" v:val="VT0(0.25):26"/>
			</v:userDefs>
			<title>State, Act.Region.20</title>
			<g id="shape21-19" v:mID="21" v:groupContext="shape" transform="translate(0,-13.2902)">
				<title>Tabelle.21</title>
				<v:userDefs>
					<v:ud v:nameU="LinePattern" v:val="VT0(0):26"/>
				</v:userDefs>
			</g>
			<g id="shape22-21" v:mID="22" v:groupContext="shape" transform="translate(0,-13.2902)">
				<title>Tabelle.22</title>
				<v:userDefs>
					<v:ud v:nameU="LinePattern" v:val="VT0(0):26"/>
				</v:userDefs>
			</g>
			<g id="shape23-23" v:mID="23" v:groupContext="shape">
				<title>Tabelle.23</title>
				<desc>Rank Topics</desc>
				<v:userDefs>
					<v:ud v:nameU="LinePattern" v:val="VT0(0):26"/>
				</v:userDefs>
				<v:textBlock v:margins="rect(4,4,4,4)"/>
				<v:textRect cx="51.75" cy="206.535" width="103.5" height="13.2902"/>
				<path d="M0 209.86 A3.32255 3.32255 -180 0 0 3.32 213.18 L100.18 213.18 A3.32255 3.32255 -180 0 0 103.5 209.86 L103.5
							 203.21 A3.32255 3.32255 -180 0 0 100.18 199.89 L3.32 199.89 A3.32255 3.32255 -180 0 0 -0 203.21 L0 209.86
							 Z" class="st1"/>
				<text x="30.1" y="-203.83" transform="scale(1,-1)" class="st2" v:langID="1031"><v:paragraph v:horizAlign="1"/><v:tabList/>Rank Topics</text>			</g>
		</g>
		<g id="group24-26" transform="translate(219.09,353.521) scale(1,-1)" v:mID="24" v:groupContext="group">
			<v:userDefs>
				<v:ud v:nameU="F" v:val="VT0(1):26"/>
				<v:ud v:nameU="Format" v:val="VT0(0):26"/>
				<v:ud v:nameU="OldNew" v:val="VT0(0.25):26"/>
			</v:userDefs>
			<title>State, Act.Region.24</title>
			<g id="shape25-27" v:mID="25" v:groupContext="shape" transform="translate(0,-13.2902)">
				<title>Tabelle.25</title>
				<v:userDefs>
					<v:ud v:nameU="LinePattern" v:val="VT0(0):26"/>
				</v:userDefs>
			</g>
			<g id="shape26-29" v:mID="26" v:groupContext="shape" transform="translate(0,-13.2902)">
				<title>Tabelle.26</title>
				<v:userDefs>
					<v:ud v:nameU="LinePattern" v:val="VT0(0):26"/>
				</v:userDefs>
			</g>
			<g id="shape27-31" v:mID="27" v:groupContext="shape">
				<title>Tabelle.27</title>
				<desc>Select Relevant Topics</desc>
				<v:userDefs>
					<v:ud v:nameU="LinePattern" v:val="VT0(0):26"/>
				</v:userDefs>
				<v:textBlock v:margins="rect(4,4,4,4)"/>
				<v:textRect cx="51.75" cy="206.535" width="103.5" height="13.2902"/>
				<path d="M0 209.86 A3.32255 3.32255 -180 0 0 3.32 213.18 L100.18 213.18 A3.32255 3.32255 -180 0 0 103.5 209.86 L103.5
							 203.21 A3.32255 3.32255 -180 0 0 100.18 199.89 L3.32 199.89 A3.32255 3.32255 -180 0 0 -0 203.21 L0 209.86
							 Z" class="st1"/>
				<text x="16.17" y="-203.83" transform="scale(1,-1)" class="st2" v:langID="1031"><v:paragraph v:horizAlign="1"/><v:tabList/>Select Relevant Topics</text>			</g>
		</g>
		<g id="group28-34" transform="translate(219.09,405.271) scale(1,-1)" v:mID="28" v:groupContext="group">
			<v:userDefs>
				<v:ud v:nameU="F" v:val="VT0(1):26"/>
				<v:ud v:nameU="Format" v:val="VT0(0):26"/>
				<v:ud v:nameU="OldNew" v:val="VT0(0.25):26"/>
			</v:userDefs>
			<title>State, Act.Region.28</title>
			<g id="shape29-35" v:mID="29" v:groupContext="shape" transform="translate(0,-13.5395)">
				<title>Tabelle.29</title>
				<v:userDefs>
					<v:ud v:nameU="LinePattern" v:val="VT0(0):26"/>
				</v:userDefs>
			</g>
			<g id="shape30-37" v:mID="30" v:groupContext="shape" transform="translate(0,-13.5395)">
				<title>Tabelle.30</title>
				<v:userDefs>
					<v:ud v:nameU="LinePattern" v:val="VT0(0):26"/>
				</v:userDefs>
			</g>
			<g id="shape31-39" v:mID="31" v:groupContext="shape">
				<title>Tabelle.31</title>
				<desc>Evaluate Classifier</desc>
				<v:userDefs>
					<v:ud v:nameU="LinePattern" v:val="VT0(0):26"/>
				</v:userDefs>
				<v:textBlock v:margins="rect(4,4,4,4)"/>
				<v:textRect cx="51.75" cy="206.41" width="103.5" height="13.5395"/>
				<path d="M0 209.8 A3.38488 3.38488 -180 0 0 3.38 213.18 L100.12 213.18 A3.38488 3.38488 -180 0 0 103.5 209.8 L103.5
							 203.03 A3.38488 3.38488 -180 0 0 100.12 199.64 L3.38 199.64 A3.38488 3.38488 -180 0 0 0 203.03 L0 209.8
							 Z" class="st1"/>
				<text x="22.76" y="-203.71" transform="scale(1,-1)" class="st2" v:langID="1031"><v:paragraph v:horizAlign="1"/><v:tabList/>Evaluate Classifier</text>			</g>
		</g>
		<g id="group44-42" transform="translate(111.09,373.771) scale(1,-1)" v:mID="44" v:groupContext="group">
			<v:userDefs>
				<v:ud v:nameU="F" v:val="VT0(1):26"/>
				<v:ud v:nameU="Format" v:val="VT0(0):26"/>
				<v:ud v:nameU="OldNew" v:val="VT0(0.25):26"/>
			</v:userDefs>
			<title>State, Act.Region.44</title>
			<g id="shape45-43" v:mID="45" v:groupContext="shape" transform="translate(0,-24.75)">
				<title>Tabelle.45</title>
				<v:userDefs>
					<v:ud v:nameU="LinePattern" v:val="VT0(0):26"/>
				</v:userDefs>
			</g>
			<g id="shape46-45" v:mID="46" v:groupContext="shape" transform="translate(0,-24.75)">
				<title>Tabelle.46</title>
				<v:userDefs>
					<v:ud v:nameU="LinePattern" v:val="VT0(0):26"/>
				</v:userDefs>
			</g>
			<g id="shape47-47" v:mID="47" v:groupContext="shape">
				<title>Tabelle.47</title>
				<desc>Score Document Relevance</desc>
				<v:userDefs>
					<v:ud v:nameU="LinePattern" v:val="VT0(0):26"/>
				</v:userDefs>
				<v:textBlock v:margins="rect(4,4,4,4)"/>
				<v:textRect cx="51.75" cy="200.805" width="103.5" height="24.75"/>
				<path d="M0 206.99 A6.1875 6.1875 -180 0 0 6.19 213.18 L97.31 213.18 A6.1875 6.1875 -180 0 0 103.5 206.99 L103.5
							 194.62 A6.1875 6.1875 -180 0 0 97.31 188.43 L6.19 188.43 A6.1875 6.1875 -180 0 0 0 194.62 L0 206.99
							 Z" class="st1"/>
				<text x="21.47" y="-203.5" transform="scale(1,-1)" class="st2" v:langID="1031"><v:paragraph v:horizAlign="1"/><v:tabList/>Score Document <tspan
							x="33.1" dy="1.2em" class="st3">Relevance</tspan></text>			</g>
		</g>
		<g id="shape60-51" v:mID="60" v:groupContext="shape" transform="translate(376.02,38.4635) rotate(90)">
			<title>Message (seq.diag).60</title>
			<v:userDefs>
				<v:ud v:nameU="State" v:val="VT0(1):26"/>
				<v:ud v:nameU="LostFound" v:val="VT0(0):26"/>
			</v:userDefs>
			<path d="M0 213.18 L13.6 213.18" class="st4"/>
		</g>
		<g id="shape68-57" v:mID="68" v:groupContext="shape" transform="translate(322.02,0.84) rotate(90)">
			<title>Partition (Swimlane)</title>
			<desc>Computational Input</desc>
			<v:userDefs>
				<v:ud v:nameU="Menu" v:val="VT0(1):26"/>
			</v:userDefs>
			<v:textBlock v:margins="rect(4,4,4,4)" v:verticalAlign="0"/>
			<v:textRect cx="9" cy="159.18" width="108" height="18" transform="rotate(-90)"/>
			<path d="M0 105.18 L18 105.18 L18 213.18 L0 213.18 L0 105.18 Z" class="st6"/>
			<path d="M211.5 213.18 L18 213.18" class="st7"/>
			<path d="M18 105.18 L211.5 105.18" class="st7"/>
			<path d="M0 105.18 L18 105.18 L18 213.18 L0 213.18 L0 105.18" class="st7"/>
			<path d="M211.5 213.18 L211.5 105.18" class="st7"/>
			<path d="M18 213.18 L18 105.18" class="st7"/>
			<rect v:rectContext="textBkgnd" x="-198.1" y="4.00012" width="77.8403" height="10.7998" transform="rotate(-90)"
					class="st8"/>
			<text x="-198.1" y="12.1" transform="rotate(-90)" class="st9" v:langID="1031"><v:paragraph v:horizAlign="1"/><v:tabList/>Computational Input</text>		</g>
		<g id="shape69-66" v:mID="69" v:groupContext="shape" transform="translate(430.02,0.84) rotate(90)">
			<title>Partition (Swimlane).69</title>
			<desc>Researcher Input</desc>
			<v:userDefs>
				<v:ud v:nameU="Menu" v:val="VT0(1):26"/>
			</v:userDefs>
			<v:textBlock v:margins="rect(4,4,4,4)" v:verticalAlign="0"/>
			<v:textRect cx="9" cy="159.18" width="108" height="18" transform="rotate(-90)"/>
			<path d="M0 105.18 L18 105.18 L18 213.18 L0 213.18 L0 105.18 Z" class="st6"/>
			<path d="M211.5 213.18 L18 213.18" class="st7"/>
			<path d="M18 105.18 L211.5 105.18" class="st7"/>
			<path d="M0 105.18 L18 105.18 L18 213.18 L0 213.18 L0 105.18" class="st7"/>
			<path d="M211.5 213.18 L211.5 105.18" class="st7"/>
			<path d="M18 213.18 L18 105.18" class="st7"/>
			<rect v:rectContext="textBkgnd" x="-191.045" y="4.00012" width="63.7295" height="10.7998" transform="rotate(-90)"
					class="st8"/>
			<text x="-191.04" y="12.1" transform="rotate(-90)" class="st9" v:langID="1031"><v:paragraph v:horizAlign="1"/><v:tabList/>Researcher Input</text>		</g>
		<g id="shape70-75" v:mID="70" v:groupContext="shape" transform="translate(214.02,0.84) rotate(90)">
			<title>Partition (Swimlane).70</title>
			<desc>Expert Input</desc>
			<v:userDefs>
				<v:ud v:nameU="Menu" v:val="VT0(1):26"/>
			</v:userDefs>
			<v:textBlock v:margins="rect(4,4,4,4)" v:verticalAlign="0"/>
			<v:textRect cx="9" cy="159.18" width="108" height="18" transform="rotate(-90)"/>
			<path d="M0 105.18 L18 105.18 L18 213.18 L0 213.18 L0 105.18 Z" class="st6"/>
			<path d="M211.5 213.18 L18 213.18" class="st7"/>
			<path d="M18 105.18 L211.5 105.18" class="st7"/>
			<path d="M0 105.18 L18 105.18 L18 213.18 L0 213.18 L0 105.18" class="st7"/>
			<path d="M211.5 213.18 L211.5 105.18" class="st7"/>
			<path d="M18 213.18 L18 105.18" class="st7"/>
			<rect v:rectContext="textBkgnd" x="-182.304" y="4.00012" width="46.248" height="10.7998" transform="rotate(-90)"
					class="st8"/>
			<text x="-182.3" y="12.1" transform="rotate(-90)" class="st9" v:langID="1031"><v:paragraph v:horizAlign="1"/><v:tabList/>Expert Input</text>		</g>
		<g id="group73-84" transform="translate(2.80874,238.353) scale(1,-1)" v:mID="73" v:groupContext="group">
			<v:userDefs>
				<v:ud v:nameU="F" v:val="VT0(1):26"/>
				<v:ud v:nameU="Format" v:val="VT0(0):26"/>
				<v:ud v:nameU="OldNew" v:val="VT0(0.25):26"/>
			</v:userDefs>
			<title>State, Act.Region.73</title>
			<g id="shape74-85" v:mID="74" v:groupContext="shape" transform="translate(0,-13.2902)">
				<title>Tabelle.74</title>
				<v:userDefs>
					<v:ud v:nameU="LinePattern" v:val="VT0(0):26"/>
				</v:userDefs>
			</g>
			<g id="shape75-87" v:mID="75" v:groupContext="shape" transform="translate(0,-13.2902)">
				<title>Tabelle.75</title>
				<v:userDefs>
					<v:ud v:nameU="LinePattern" v:val="VT0(0):26"/>
				</v:userDefs>
			</g>
			<g id="shape76-89" v:mID="76" v:groupContext="shape">
				<title>Tabelle.76</title>
				<desc>Conduct Expert Survey</desc>
				<v:userDefs>
					<v:ud v:nameU="LinePattern" v:val="VT0(0):26"/>
				</v:userDefs>
				<v:textBlock v:margins="rect(4,4,4,4)"/>
				<v:textRect cx="52.0313" cy="206.535" width="104.07" height="13.2902"/>
				<path d="M0 209.86 A3.32255 3.32255 -180 0 0 3.32 213.18 L100.74 213.18 A3.32255 3.32255 -180 0 0 104.06 209.86 L104.06
							 203.21 A3.32255 3.32255 -180 0 0 100.74 199.89 L3.32 199.89 A3.32255 3.32255 -180 0 0 -0 203.21 L0 209.86
							 Z" class="st1"/>
				<text x="15.67" y="-203.83" transform="scale(1,-1)" class="st2" v:langID="1031"><v:paragraph v:horizAlign="1"/><v:tabList/>Conduct Expert Survey</text>			</g>
		</g>
		<g id="group107-92" transform="translate(54.84,-174.716)" v:mID="107" v:groupContext="group">
			<v:userDefs>
				<v:ud v:nameU="BeginAngle" v:prompt="" v:val="VT0(0):32"/>
				<v:ud v:nameU="EndAngle" v:prompt="" v:val="VT0(1.5707963267949):32"/>
				<v:ud v:nameU="RealBeginX" v:val="VT0(0):1"/>
				<v:ud v:nameU="RealBeginY" v:val="VT0(0):1"/>
				<v:ud v:nameU="EndX" v:val="VT0(-1):1"/>
				<v:ud v:nameU="EndY" v:val="VT0(-0.375):1"/>
				<v:ud v:nameU="BeginArrowSize" v:val="VT0(0.17333333333333):29"/>
				<v:ud v:nameU="EndSize" v:val="VT0(0.17333333333333):29"/>
				<v:ud v:nameU="FillColor" v:prompt="Association = 0, Composition = 2, Aggregation = 1, Namespace = 3"
						v:val="VT0(0):26"/>
				<v:ud v:nameU="Navigability" v:prompt="Position of first &#60;--- or -X----" v:val="VT0(0):1"/>
				<v:ud v:nameU="NonNavigability" v:prompt="Position of first &#60;--- or -X----" v:val="VT0(0):1"/>
				<v:ud v:nameU="BeginArrow" v:prompt="No Arrow = 0, Arrow = 1" v:val="VT0(0):26"/>
				<v:ud v:nameU="SetBeginArrow" v:val="VT0(0):26"/>
				<v:ud v:nameU="SetEndArrow" v:val="VT0(0):26"/>
				<v:ud v:nameU="BeginDot" v:prompt="No Dot = 0; Dot = 1" v:val="VT0(0):26"/>
				<v:ud v:nameU="SetBeginArrow42" v:val="VT0(0):26"/>
				<v:ud v:nameU="BeginAngle" v:prompt="" v:val="VT0(-1.2669653708083):32"/>
				<v:ud v:nameU="EndAngle" v:prompt="" v:val="VT0(-0.2104093816349):32"/>
				<v:ud v:nameU="EndX" v:prompt="" v:val="VT0(-1.2499998557297):1"/>
				<v:ud v:nameU="EndY" v:prompt="" v:val="VT0(1.102470332091):1"/>
				<v:ud v:nameU="SetEndArrow" v:prompt="" v:val="VT0(1):26"/>
			</v:userDefs>
			<title>Routable Relationship.107</title>
			<g id="shape108-93" v:mID="108" v:groupContext="shape" transform="translate(9.2994,57.1605)">
				<title>Tabelle.108</title>
				<path d="M0 213.18 L2.25 213.18 L2.25 210.93 L0 210.93 L0 213.18 Z" class="st10"/>
			</g>
			<g id="shape109-96" v:mID="109" v:groupContext="shape" transform="translate(35.0411,74.128)">
				<title>Tabelle.109</title>
				<path d="M0 213.18 L2.25 213.18 L2.25 210.93 L0 210.93 L0 213.18 Z" class="st10"/>
			</g>
			<g id="shape110-99" v:mID="110" v:groupContext="shape" transform="translate(10.7512,77.8976)">
				<title>Tabelle.110</title>
				<path d="M0 213.18 L2.25 213.18 L2.25 210.93 L0 210.93 L0 213.18 Z" class="st10"/>
			</g>
			<g id="shape111-102" v:mID="111" v:groupContext="shape" transform="translate(3.98269,69.4827)">
				<title>Tabelle.111</title>
				<path d="M0 213.18 L2.25 213.18 L2.25 210.93 L0 210.93 L0 213.18 Z" class="st10"/>
			</g>
			<g id="shape107-105" v:mID="107" v:groupContext="groupContent">
				<path d="M0 213.18 L0 277.65 L90 277.65 L90 292.56" class="st4"/>
			</g>
		</g>
		<g id="group134-110" transform="translate(171.84,-136.152)" v:mID="134" v:groupContext="group">
			<v:userDefs>
				<v:ud v:nameU="BeginAngle" v:prompt="" v:val="VT0(0):32"/>
				<v:ud v:nameU="EndAngle" v:prompt="" v:val="VT0(1.5707963267949):32"/>
				<v:ud v:nameU="RealBeginX" v:val="VT0(0):1"/>
				<v:ud v:nameU="RealBeginY" v:val="VT0(0):1"/>
				<v:ud v:nameU="EndX" v:val="VT0(-1):1"/>
				<v:ud v:nameU="EndY" v:val="VT0(-0.375):1"/>
				<v:ud v:nameU="BeginArrowSize" v:val="VT0(0.17333333333333):29"/>
				<v:ud v:nameU="EndSize" v:val="VT0(0.17333333333333):29"/>
				<v:ud v:nameU="FillColor" v:prompt="Association = 0, Composition = 2, Aggregation = 1, Namespace = 3"
						v:val="VT0(0):26"/>
				<v:ud v:nameU="Navigability" v:prompt="Position of first &#60;--- or -X----" v:val="VT0(0):1"/>
				<v:ud v:nameU="NonNavigability" v:prompt="Position of first &#60;--- or -X----" v:val="VT0(0):1"/>
				<v:ud v:nameU="BeginArrow" v:prompt="No Arrow = 0, Arrow = 1" v:val="VT0(0):26"/>
				<v:ud v:nameU="SetBeginArrow" v:val="VT0(0):26"/>
				<v:ud v:nameU="SetEndArrow" v:val="VT0(0):26"/>
				<v:ud v:nameU="BeginDot" v:prompt="No Dot = 0; Dot = 1" v:val="VT0(0):26"/>
				<v:ud v:nameU="SetBeginArrow42" v:val="VT0(0):26"/>
				<v:ud v:nameU="BeginAngle" v:prompt="" v:val="VT0(-1.5707967301094):32"/>
				<v:ud v:nameU="EndAngle" v:prompt="" v:val="VT0(-1.5707967301094):32"/>
				<v:ud v:nameU="RealBeginX" v:prompt="" v:val="VT0(-0.12499988569074):1"/>
				<v:ud v:nameU="EndX" v:prompt="" v:val="VT0(0.12500011430926):1"/>
				<v:ud v:nameU="EndY" v:prompt="" v:val="VT0(0.56684923270613):1"/>
				<v:ud v:nameU="Navigability" v:prompt="" v:val="VT0(-0.12499988569074):1"/>
				<v:ud v:nameU="SetEndArrow" v:prompt="" v:val="VT0(1):26"/>
			</v:userDefs>
			<title>Routable Relationship.134</title>
			<g id="shape135-111" v:mID="135" v:groupContext="shape" transform="translate(2.60113,-8.56072)">
				<title>Tabelle.135</title>
				<path d="M0 213.18 L2.25 213.18 L2.25 210.93 L0 210.93 L0 213.18 Z" class="st10"/>
			</g>
			<g id="shape136-114" v:mID="136" v:groupContext="shape" transform="translate(2.60112,13.2631)">
				<title>Tabelle.136</title>
				<path d="M0 213.18 L2.25 213.18 L2.25 210.93 L0 210.93 L0 213.18 Z" class="st10"/>
			</g>
			<g id="shape137-117" v:mID="137" v:groupContext="shape" transform="translate(-22.8547,13.2631)">
				<title>Tabelle.137</title>
				<path d="M0 213.18 L2.25 213.18 L2.25 210.93 L0 210.93 L0 213.18 Z" class="st10"/>
			</g>
			<g id="shape138-120" v:mID="138" v:groupContext="shape" transform="translate(-22.8547,-8.56073)">
				<title>Tabelle.138</title>
				<path d="M0 213.18 L2.25 213.18 L2.25 210.93 L0 210.93 L0 213.18 Z" class="st10"/>
			</g>
			<g id="shape134-123" v:mID="134" v:groupContext="groupContent">
				<path d="M-9 213.18 L-9 253.99" class="st4"/>
			</g>
		</g>
		<g id="group149-128" transform="translate(214.59,-89.7661)" v:mID="149" v:groupContext="group">
			<v:userDefs>
				<v:ud v:nameU="BeginAngle" v:prompt="" v:val="VT0(0):32"/>
				<v:ud v:nameU="EndAngle" v:prompt="" v:val="VT0(1.5707963267949):32"/>
				<v:ud v:nameU="RealBeginX" v:val="VT0(0):1"/>
				<v:ud v:nameU="RealBeginY" v:val="VT0(0):1"/>
				<v:ud v:nameU="EndX" v:val="VT0(-1):1"/>
				<v:ud v:nameU="EndY" v:val="VT0(-0.375):1"/>
				<v:ud v:nameU="BeginArrowSize" v:val="VT0(0.17333333333333):29"/>
				<v:ud v:nameU="EndSize" v:val="VT0(0.17333333333333):29"/>
				<v:ud v:nameU="FillColor" v:prompt="Association = 0, Composition = 2, Aggregation = 1, Namespace = 3"
						v:val="VT0(0):26"/>
				<v:ud v:nameU="Navigability" v:prompt="Position of first &#60;--- or -X----" v:val="VT0(0):1"/>
				<v:ud v:nameU="NonNavigability" v:prompt="Position of first &#60;--- or -X----" v:val="VT0(0):1"/>
				<v:ud v:nameU="BeginArrow" v:prompt="No Arrow = 0, Arrow = 1" v:val="VT0(0):26"/>
				<v:ud v:nameU="SetBeginArrow" v:val="VT0(0):26"/>
				<v:ud v:nameU="SetEndArrow" v:val="VT0(0):26"/>
				<v:ud v:nameU="BeginDot" v:prompt="No Dot = 0; Dot = 1" v:val="VT0(0):26"/>
				<v:ud v:nameU="SetBeginArrow42" v:val="VT0(0):26"/>
				<v:ud v:nameU="EndAngle" v:prompt="" v:val="VT0(-1.570796326795):32"/>
				<v:ud v:nameU="RealBeginY" v:prompt="" v:val="VT0(-0.014896570672415):1"/>
				<v:ud v:nameU="EndX" v:prompt="" v:val="VT0(-0.78125009482557):1"/>
				<v:ud v:nameU="EndY" v:prompt="" v:val="VT0(0.23510342932758):1"/>
				<v:ud v:nameU="NonNavigability" v:prompt="" v:val="VT0(-0.014896570672415):1"/>
				<v:ud v:nameU="SetEndArrow" v:prompt="" v:val="VT0(1):26"/>
			</v:userDefs>
			<title>Routable Relationship.149</title>
			<g id="shape150-129" v:mID="150" v:groupContext="shape" transform="translate(67.8511,4.97918)">
				<title>Tabelle.150</title>
				<path d="M0 213.18 L2.25 213.18 L2.25 210.93 L0 210.93 L0 213.18 Z" class="st10"/>
			</g>
			<g id="shape151-132" v:mID="151" v:groupContext="shape" transform="translate(13.7643,-4.10065)">
				<title>Tabelle.151</title>
				<path d="M0 213.18 L2.25 213.18 L2.25 210.93 L0 210.93 L0 213.18 Z" class="st10"/>
			</g>
			<g id="shape152-135" v:mID="152" v:groupContext="shape" transform="translate(13.7643,8.49935)">
				<title>Tabelle.152</title>
				<path d="M0 213.18 L2.25 213.18 L2.25 210.93 L0 210.93 L0 213.18 Z" class="st10"/>
			</g>
			<g id="shape153-138" v:mID="153" v:groupContext="shape" transform="translate(42.3953,4.97918)">
				<title>Tabelle.153</title>
				<path d="M0 213.18 L2.25 213.18 L2.25 210.93 L0 210.93 L0 213.18 Z" class="st10"/>
			</g>
			<g id="shape149-141" v:mID="149" v:groupContext="groupContent">
				<path d="M0 214.25 L56.25 214.25 L56.25 230.11" class="st4"/>
			</g>
		</g>
		<g id="group164-146" transform="translate(219.09,-68.3911)" v:mID="164" v:groupContext="group">
			<v:userDefs>
				<v:ud v:nameU="BeginAngle" v:prompt="" v:val="VT0(0):32"/>
				<v:ud v:nameU="EndAngle" v:prompt="" v:val="VT0(1.5707963267949):32"/>
				<v:ud v:nameU="RealBeginX" v:val="VT0(0):1"/>
				<v:ud v:nameU="RealBeginY" v:val="VT0(0):1"/>
				<v:ud v:nameU="EndX" v:val="VT0(-1):1"/>
				<v:ud v:nameU="EndY" v:val="VT0(-0.375):1"/>
				<v:ud v:nameU="BeginArrowSize" v:val="VT0(0.17333333333333):29"/>
				<v:ud v:nameU="EndSize" v:val="VT0(0.17333333333333):29"/>
				<v:ud v:nameU="FillColor" v:prompt="Association = 0, Composition = 2, Aggregation = 1, Namespace = 3"
						v:val="VT0(0):26"/>
				<v:ud v:nameU="Navigability" v:prompt="Position of first &#60;--- or -X----" v:val="VT0(0):1"/>
				<v:ud v:nameU="NonNavigability" v:prompt="Position of first &#60;--- or -X----" v:val="VT0(0):1"/>
				<v:ud v:nameU="BeginArrow" v:prompt="No Arrow = 0, Arrow = 1" v:val="VT0(0):26"/>
				<v:ud v:nameU="SetBeginArrow" v:val="VT0(0):26"/>
				<v:ud v:nameU="SetEndArrow" v:val="VT0(0):26"/>
				<v:ud v:nameU="BeginDot" v:prompt="No Dot = 0; Dot = 1" v:val="VT0(0):26"/>
				<v:ud v:nameU="SetBeginArrow42" v:val="VT0(0):26"/>
				<v:ud v:nameU="BeginAngle" v:prompt="" v:val="VT0(-3.1415926535898):32"/>
				<v:ud v:nameU="EndAngle" v:prompt="" v:val="VT0(-1.570796326795):32"/>
				<v:ud v:nameU="RealBeginY" v:prompt="" v:val="VT0(-0.03052139751415):1"/>
				<v:ud v:nameU="EndX" v:prompt="" v:val="VT0(0.78125009482557):1"/>
				<v:ud v:nameU="EndY" v:prompt="" v:val="VT0(0.21947860248585):1"/>
				<v:ud v:nameU="NonNavigability" v:prompt="" v:val="VT0(-0.03052139751415):1"/>
				<v:ud v:nameU="SetEndArrow" v:prompt="" v:val="VT0(1):26"/>
			</v:userDefs>
			<title>Routable Relationship.164</title>
			<g id="shape165-147" v:mID="165" v:groupContext="shape" transform="translate(-44.6489,3.92169)">
				<title>Tabelle.165</title>
				<path d="M0 213.18 L2.25 213.18 L2.25 210.93 L0 210.93 L0 213.18 Z" class="st10"/>
			</g>
			<g id="shape166-150" v:mID="166" v:groupContext="shape" transform="translate(-15.9504,9.62434)">
				<title>Tabelle.166</title>
				<path d="M0 213.18 L2.25 213.18 L2.25 210.93 L0 210.93 L0 213.18 Z" class="st10"/>
			</g>
			<g id="shape167-153" v:mID="167" v:groupContext="shape" transform="translate(-15.9504,-2.97566)">
				<title>Tabelle.167</title>
				<path d="M0 213.18 L2.25 213.18 L2.25 210.93 L0 210.93 L0 213.18 Z" class="st10"/>
			</g>
			<g id="shape168-156" v:mID="168" v:groupContext="shape" transform="translate(-70.1047,3.92169)">
				<title>Tabelle.168</title>
				<path d="M0 213.18 L2.25 213.18 L2.25 210.93 L0 210.93 L0 213.18 Z" class="st10"/>
			</g>
			<g id="shape164-159" v:mID="164" v:groupContext="groupContent">
				<path d="M0 215.38 L-56.25 215.38 L-56.25 228.98" class="st4"/>
			</g>
		</g>
		<g id="group178-164" transform="translate(214.59,-40.2136)" v:mID="178" v:groupContext="group">
			<v:userDefs>
				<v:ud v:nameU="BeginAngle" v:prompt="" v:val="VT0(0):32"/>
				<v:ud v:nameU="EndAngle" v:prompt="" v:val="VT0(1.5707963267949):32"/>
				<v:ud v:nameU="RealBeginX" v:val="VT0(0):1"/>
				<v:ud v:nameU="RealBeginY" v:val="VT0(0):1"/>
				<v:ud v:nameU="EndX" v:val="VT0(-1):1"/>
				<v:ud v:nameU="EndY" v:val="VT0(-0.375):1"/>
				<v:ud v:nameU="BeginArrowSize" v:val="VT0(0.17333333333333):29"/>
				<v:ud v:nameU="EndSize" v:val="VT0(0.17333333333333):29"/>
				<v:ud v:nameU="FillColor" v:prompt="Association = 0, Composition = 2, Aggregation = 1, Namespace = 3"
						v:val="VT0(0):26"/>
				<v:ud v:nameU="Navigability" v:prompt="Position of first &#60;--- or -X----" v:val="VT0(0):1"/>
				<v:ud v:nameU="NonNavigability" v:prompt="Position of first &#60;--- or -X----" v:val="VT0(0):1"/>
				<v:ud v:nameU="BeginArrow" v:prompt="No Arrow = 0, Arrow = 1" v:val="VT0(0):26"/>
				<v:ud v:nameU="SetBeginArrow" v:val="VT0(0):26"/>
				<v:ud v:nameU="SetEndArrow" v:val="VT0(0):26"/>
				<v:ud v:nameU="BeginDot" v:prompt="No Dot = 0; Dot = 1" v:val="VT0(0):26"/>
				<v:ud v:nameU="SetBeginArrow42" v:val="VT0(0):26"/>
				<v:ud v:nameU="EndAngle" v:prompt="" v:val="VT0(-1.5707963267949):32"/>
				<v:ud v:nameU="EndX" v:prompt="" v:val="VT0(-0.78125009482557):1"/>
				<v:ud v:nameU="EndY" v:prompt="" v:val="VT0(0.26562521542338):1"/>
				<v:ud v:nameU="SetEndArrow" v:prompt="" v:val="VT0(1):26"/>
			</v:userDefs>
			<title>Routable Relationship</title>
			<g id="shape179-165" v:mID="179" v:groupContext="shape" transform="translate(67.8511,7.07864)">
				<title>Tabelle.179</title>
				<path d="M0 213.18 L2.25 213.18 L2.25 210.93 L0 210.93 L0 213.18 Z" class="st10"/>
			</g>
			<g id="shape180-168" v:mID="180" v:groupContext="shape" transform="translate(13.8624,-5.1732)">
				<title>Tabelle.180</title>
				<path d="M0 213.18 L2.25 213.18 L2.25 210.93 L0 210.93 L0 213.18 Z" class="st10"/>
			</g>
			<g id="shape181-171" v:mID="181" v:groupContext="shape" transform="translate(13.8624,7.4268)">
				<title>Tabelle.181</title>
				<path d="M0 213.18 L2.25 213.18 L2.25 210.93 L0 210.93 L0 213.18 Z" class="st10"/>
			</g>
			<g id="shape182-174" v:mID="182" v:groupContext="shape" transform="translate(42.3953,7.07864)">
				<title>Tabelle.182</title>
				<path d="M0 213.18 L2.25 213.18 L2.25 210.93 L0 210.93 L0 213.18 Z" class="st10"/>
			</g>
			<g id="shape178-177" v:mID="178" v:groupContext="groupContent">
				<path d="M0 213.18 L56.25 213.18 L56.25 232.31" class="st4"/>
			</g>
		</g>
		<g id="shape183-182" v:mID="183" v:groupContext="shape" transform="translate(1.72874,-174.416)">
			<title>Tabelle.183</title>
			<desc>①</desc>
			<v:textBlock v:margins="rect(4,4,4,4)"/>
			<v:textRect cx="8.01562" cy="206.535" width="16.04" height="13.2902"/>
			<rect x="0" y="199.89" width="16.0312" height="13.2902" class="st11"/>
			<text x="4" y="208.93" class="st12" v:langID="1031"><v:paragraph v:horizAlign="1"/><v:tabList/>①</text>		</g>
		<g id="shape184-185" v:mID="184" v:groupContext="shape" transform="translate(110.742,-174.539)">
			<title>Tabelle.184</title>
			<desc>②</desc>
			<v:textBlock v:margins="rect(4,4,4,4)"/>
			<v:textRect cx="9" cy="206.482" width="18" height="13.3951"/>
			<rect x="0" y="199.785" width="18" height="13.3951" class="st11"/>
			<text x="4" y="209.18" class="st12" v:langID="1031"><v:paragraph v:horizAlign="1"/><v:tabList/>②</text>		</g>
		<g id="shape185-188" v:mID="185" v:groupContext="shape" transform="translate(110.64,-136.152)">
			<title>Tabelle.185</title>
			<desc>③</desc>
			<v:textBlock v:margins="rect(4,4,4,4)"/>
			<v:textRect cx="9" cy="200.7" width="18" height="24.9598"/>
			<rect x="0" y="188.22" width="18" height="24.9598" class="st11"/>
			<text x="4" y="203.1" class="st12" v:langID="1031"><v:paragraph v:horizAlign="1"/><v:tabList/>③</text>		</g>
		<g id="shape186-191" v:mID="186" v:groupContext="shape" transform="translate(110.845,-81.6394)">
			<title>Tabelle.186</title>
			<desc>④</desc>
			<v:textBlock v:margins="rect(4,4,4,4)"/>
			<v:textRect cx="8.01562" cy="206.535" width="16.04" height="13.2902"/>
			<rect x="0" y="199.89" width="16.0312" height="13.2902" class="st11"/>
			<text x="4" y="208.93" class="st12" v:langID="1031"><v:paragraph v:horizAlign="1"/><v:tabList/>④</text>		</g>
		<g id="shape187-194" v:mID="187" v:groupContext="shape" transform="translate(110.742,-27.8386)">
			<title>Tabelle.187</title>
			<desc>⑥</desc>
			<v:textBlock v:margins="rect(4,4,4,4)"/>
			<v:textRect cx="8.69319" cy="200.805" width="17.39" height="24.75"/>
			<rect x="0" y="188.43" width="17.3864" height="24.75" class="st11"/>
			<text x="4" y="203.2" class="st12" v:langID="1031"><v:paragraph v:horizAlign="1"/><v:tabList/>⑥</text>		</g>
		<g id="shape188-197" v:mID="188" v:groupContext="shape" transform="translate(218.584,-59.2416)">
			<title>Tabelle.188</title>
			<desc>⑤</desc>
			<v:textBlock v:margins="rect(4,4,4,4)"/>
			<v:textRect cx="9.28125" cy="206.535" width="18.57" height="13.2902"/>
			<rect x="0" y="199.89" width="18.5625" height="13.2902" class="st11"/>
			<text x="4" y="208.93" class="st12" v:langID="1031"><v:paragraph v:horizAlign="1"/><v:tabList/>⑤</text>		</g>
		<g id="shape189-200" v:mID="189" v:groupContext="shape" transform="translate(218.487,-7.14)">
			<title>Tabelle.189</title>
			<desc>⑦</desc>
			<v:textBlock v:margins="rect(4,4,4,4)"/>
			<v:textRect cx="9.28125" cy="206.41" width="18.57" height="13.5395"/>
			<rect x="0" y="199.64" width="18.5625" height="13.5395" class="st11"/>
			<text x="4" y="208.81" class="st12" v:langID="1031"><v:paragraph v:horizAlign="1"/><v:tabList/>⑦</text>		</g>
	</g>
</svg>
