<?xml version="1.0" encoding="UTF-8" standalone="no"?>
<!DOCTYPE svg PUBLIC "-//W3C//DTD SVG 1.1//EN" "http://www.w3.org/Graphics/SVG/1.1/DTD/svg11.dtd">
<!-- Generiert durch Microsoft Visio, SVG Export round-robin-sampling.svg Page-2 -->
<svg xmlns="http://www.w3.org/2000/svg" xmlns:xlink="http://www.w3.org/1999/xlink" xmlns:ev="http://www.w3.org/2001/xml-events"
		xmlns:v="http://schemas.microsoft.com/visio/2003/SVGExtensions/" width="3.83771in" height="3.88564in"
		viewBox="0 0 276.315 279.766" xml:space="preserve" color-interpolation-filters="sRGB" class="st9">
	<v:documentProperties v:langID="1031" v:metric="true" v:viewMarkup="false">
		<v:userDefs>
			<v:ud v:nameU="msvSubprocessMaster" v:prompt="" v:val="VT4(Rectangle)"/>
			<v:ud v:nameU="msvNoAutoConnect" v:val="VT0(1):26"/>
		</v:userDefs>
	</v:documentProperties>

	<style type="text/css">
	<![CDATA[
		.st1 {fill:#bfbfbf;stroke:none;stroke-width:0.75}
		.st2 {fill:#d8d8d8;stroke:none;stroke-width:0.75}
		.st3 {fill:none;stroke:none;stroke-width:0.25}
		.st4 {fill:#000000;font-family:Calibri;font-size:1.00001em;font-weight:bold}
		.st5 {fill:#595959;stroke:#c7c8c8;stroke-width:0.25}
		.st6 {fill:#feffff;font-family:Calibri;font-size:1.16666em;font-weight:bold}
		.st7 {fill:none;stroke:#3f3f3f;stroke-width:0.75}
		.st8 {fill:url(#grad0-81);stroke:#3f3f3f;stroke-width:0.75}
		.st9 {fill:none;fill-rule:evenodd;font-size:12px;overflow:visible;stroke-linecap:square;stroke-miterlimit:3}
	]]>
	</style>

	<defs id="Patterns_And_Gradients">
		<linearGradient id="grad0-81" x1="0" y1="0" x2="1" y2="0" gradientTransform="rotate(60 0.5 0.5)">
			<stop offset="0" stop-color="#e8ebef" stop-opacity="1"/>
			<stop offset="0.24" stop-color="#f4f5f7" stop-opacity="1"/>
			<stop offset="0.54" stop-color="#feffff" stop-opacity="1"/>
		</linearGradient>
	</defs>
	<g v:mID="4" v:index="2" v:groupContext="foregroundPage">
		<v:userDefs>
			<v:ud v:nameU="msvThemeOrder" v:val="VT0(0):26"/>
		</v:userDefs>
		<title>Zeichenblatt-2</title>
		<v:pageProperties v:drawingScale="0.0393701" v:pageScale="0.0393701" v:drawingUnits="24" v:shadowOffsetX="8.50394"
				v:shadowOffsetY="-8.50394"/>
		<g id="group60-1" transform="translate(0,-0.75)" v:mID="60" v:groupContext="group">
			<title>Tabelle.60</title>
			<g id="group53-2" v:mID="53" v:groupContext="group">
				<title>Tabelle.53</title>
				<g id="shape48-3" v:mID="48" v:groupContext="shape" transform="translate(0,-60.8541)">
					<title>Rechteck.48</title>
					<v:userDefs>
						<v:ud v:nameU="visVersion" v:val="VT0(15):26"/>
					</v:userDefs>
					<rect x="0" y="214.626" width="25.8633" height="65.1405" class="st1"/>
				</g>
				<g id="shape49-5" v:mID="49" v:groupContext="shape" transform="translate(0,-190.913)">
					<title>Rechteck.49</title>
					<v:userDefs>
						<v:ud v:nameU="visVersion" v:val="VT0(15):26"/>
					</v:userDefs>
					<rect x="0" y="214.626" width="25.8633" height="65.1405" class="st1"/>
				</g>
				<g id="shape50-7" v:mID="50" v:groupContext="shape">
					<title>Rechteck.50</title>
					<v:userDefs>
						<v:ud v:nameU="visVersion" v:val="VT0(15):26"/>
					</v:userDefs>
					<rect x="0" y="214.626" width="25.8633" height="65.1405" class="st2"/>
				</g>
				<g id="shape51-9" v:mID="51" v:groupContext="shape" transform="translate(0,-125.843)">
					<title>Rechteck.51</title>
					<v:userDefs>
						<v:ud v:nameU="visVersion" v:val="VT0(15):26"/>
					</v:userDefs>
					<rect x="0" y="214.626" width="25.8633" height="65.1405" class="st2"/>
				</g>
			</g>
			<g id="shape54-11" v:mID="54" v:groupContext="shape" transform="translate(-255.986,145.599) rotate(-90)">
				<title>Tabelle.54</title>
				<desc>Source 2</desc>
				<v:textBlock v:margins="rect(4,4,4,4)" v:tabSpace="42.5197"/>
				<v:textRect cx="25.5118" cy="268.918" width="51.03" height="21.6961"/>
				<rect x="0" y="258.07" width="51.0236" height="21.6961" class="st3"/>
				<text x="4.17" y="272.52" class="st4" v:langID="1031"><v:paragraph v:horizAlign="1"/><v:tabList/>Source 2</text>			</g>
			<g id="shape56-14" v:mID="56" v:groupContext="shape" transform="translate(-255.986,83.2364) rotate(-90)">
				<title>Tabelle.56</title>
				<desc>Source 1</desc>
				<v:textBlock v:margins="rect(4,4,4,4)" v:tabSpace="42.5197"/>
				<v:textRect cx="25.5118" cy="268.918" width="51.03" height="21.6961"/>
				<rect x="0" y="258.07" width="51.0236" height="21.6961" class="st3"/>
				<text x="4.17" y="272.52" class="st4" v:langID="1031"><v:paragraph v:horizAlign="1"/><v:tabList/>Source 1</text>			</g>
			<g id="shape57-17" v:mID="57" v:groupContext="shape" transform="translate(-255.986,270.323) rotate(-90)">
				<title>Tabelle.57</title>
				<desc>Source 4</desc>
				<v:textBlock v:margins="rect(4,4,4,4)" v:tabSpace="42.5197"/>
				<v:textRect cx="25.5118" cy="268.918" width="51.03" height="21.6961"/>
				<rect x="0" y="258.07" width="51.0236" height="21.6961" class="st3"/>
				<text x="4.17" y="272.52" class="st4" v:langID="1031"><v:paragraph v:horizAlign="1"/><v:tabList/>Source 4</text>			</g>
			<g id="shape58-20" v:mID="58" v:groupContext="shape" transform="translate(-255.986,207.961) rotate(-90)">
				<title>Tabelle.58</title>
				<desc>Source 3</desc>
				<v:textBlock v:margins="rect(4,4,4,4)" v:tabSpace="42.5197"/>
				<v:textRect cx="25.5118" cy="268.918" width="51.03" height="21.6961"/>
				<rect x="0" y="258.07" width="51.0236" height="21.6961" class="st3"/>
				<text x="4.17" y="272.52" class="st4" v:langID="1031"><v:paragraph v:horizAlign="1"/><v:tabList/>Source 3</text>			</g>
		</g>
		<g id="group52-23" transform="translate(26.2014,-0.750001)" v:mID="52" v:groupContext="group">
			<title>Tabelle.52</title>
			<g id="shape45-24" v:mID="45" v:groupContext="shape" transform="translate(0,-60.8541)">
				<title>Rechteck.45</title>
				<v:userDefs>
					<v:ud v:nameU="visVersion" v:val="VT0(15):26"/>
				</v:userDefs>
				<rect x="0" y="214.626" width="249.364" height="65.1405" class="st1"/>
			</g>
			<g id="shape46-26" v:mID="46" v:groupContext="shape" transform="translate(0,-190.913)">
				<title>Rechteck.46</title>
				<v:userDefs>
					<v:ud v:nameU="visVersion" v:val="VT0(15):26"/>
				</v:userDefs>
				<rect x="0" y="214.626" width="249.364" height="65.1405" class="st1"/>
			</g>
			<g id="shape44-28" v:mID="44" v:groupContext="shape">
				<title>Rechteck.44</title>
				<v:userDefs>
					<v:ud v:nameU="visVersion" v:val="VT0(15):26"/>
				</v:userDefs>
				<rect x="0" y="214.626" width="249.364" height="65.1405" class="st2"/>
			</g>
			<g id="shape43-30" v:mID="43" v:groupContext="shape" transform="translate(0,-125.843)">
				<title>Rechteck.43</title>
				<v:userDefs>
					<v:ud v:nameU="visVersion" v:val="VT0(15):26"/>
				</v:userDefs>
				<rect x="0" y="214.626" width="249.364" height="65.1405" class="st2"/>
			</g>
		</g>
		<g id="shape18-32" v:mID="18" v:groupContext="shape" transform="translate(30.3683,-197.28)">
			<title>Kreis</title>
			<desc>s1, i1</desc>
			<v:userDefs>
				<v:ud v:nameU="visVersion" v:val="VT0(15):26"/>
			</v:userDefs>
			<v:textBlock v:margins="rect(4,4,4,4)" v:tabSpace="42.5197"/>
			<v:textRect cx="25.5118" cy="254.254" width="44.65" height="38.2677"/>
			<path d="M0 254.25 A25.5118 25.5118 0 0 1 51.02 254.25 A25.5118 25.5118 0 1 1 0 254.25 Z" class="st5"/>
			<text x="10.52" y="258.45" class="st6" v:langID="1031"><v:paragraph v:horizAlign="1"/><v:tabList/>s1, i1</text>		</g>
		<g id="shape19-35" v:mID="19" v:groupContext="shape" transform="translate(92.7305,-197.28)">
			<title>Kreis.19</title>
			<desc>s1, i2</desc>
			<v:userDefs>
				<v:ud v:nameU="visVersion" v:val="VT0(15):26"/>
			</v:userDefs>
			<v:textBlock v:margins="rect(4,4,4,4)" v:tabSpace="42.5197"/>
			<v:textRect cx="25.5118" cy="254.254" width="44.65" height="38.2677"/>
			<path d="M0 254.25 A25.5118 25.5118 0 0 1 51.02 254.25 A25.5118 25.5118 0 1 1 0 254.25 Z" class="st5"/>
			<text x="10.52" y="258.45" class="st6" v:langID="1031"><v:paragraph v:horizAlign="1"/><v:tabList/>s1, i2</text>		</g>
		<g id="shape20-38" v:mID="20" v:groupContext="shape" transform="translate(155.093,-197.28)">
			<title>Kreis.20</title>
			<desc>s1, i3</desc>
			<v:userDefs>
				<v:ud v:nameU="visVersion" v:val="VT0(15):26"/>
			</v:userDefs>
			<v:textBlock v:margins="rect(4,4,4,4)" v:tabSpace="42.5197"/>
			<v:textRect cx="25.5118" cy="254.254" width="44.65" height="38.2677"/>
			<path d="M0 254.25 A25.5118 25.5118 0 0 1 51.02 254.25 A25.5118 25.5118 0 1 1 0 254.25 Z" class="st5"/>
			<text x="10.52" y="258.45" class="st6" v:langID="1031"><v:paragraph v:horizAlign="1"/><v:tabList/>s1, i3</text>		</g>
		<g id="shape21-41" v:mID="21" v:groupContext="shape" transform="translate(217.455,-197.28)">
			<title>Kreis.21</title>
			<desc>s1, i4</desc>
			<v:userDefs>
				<v:ud v:nameU="visVersion" v:val="VT0(15):26"/>
			</v:userDefs>
			<v:textBlock v:margins="rect(4,4,4,4)" v:tabSpace="42.5197"/>
			<v:textRect cx="25.5118" cy="254.254" width="44.65" height="38.2677"/>
			<path d="M0 254.25 A25.5118 25.5118 0 0 1 51.02 254.25 A25.5118 25.5118 0 1 1 0 254.25 Z" class="st5"/>
			<text x="10.52" y="258.45" class="st6" v:langID="1031"><v:paragraph v:horizAlign="1"/><v:tabList/>s1, i4</text>		</g>
		<g id="shape22-44" v:mID="22" v:groupContext="shape" transform="translate(30.3683,-134.917)">
			<title>Kreis.22</title>
			<desc>s2, i1</desc>
			<v:userDefs>
				<v:ud v:nameU="visVersion" v:val="VT0(15):26"/>
			</v:userDefs>
			<v:textBlock v:margins="rect(4,4,4,4)" v:tabSpace="42.5197"/>
			<v:textRect cx="25.5118" cy="254.254" width="44.65" height="38.2677"/>
			<path d="M0 254.25 A25.5118 25.5118 0 0 1 51.02 254.25 A25.5118 25.5118 0 1 1 0 254.25 Z" class="st5"/>
			<text x="10.52" y="258.45" class="st6" v:langID="1031"><v:paragraph v:horizAlign="1"/><v:tabList/>s2, i1</text>		</g>
		<g id="shape23-47" v:mID="23" v:groupContext="shape" transform="translate(92.7305,-134.917)">
			<title>Kreis.23</title>
			<desc>s2, i2</desc>
			<v:userDefs>
				<v:ud v:nameU="visVersion" v:val="VT0(15):26"/>
			</v:userDefs>
			<v:textBlock v:margins="rect(4,4,4,4)" v:tabSpace="42.5197"/>
			<v:textRect cx="25.5118" cy="254.254" width="44.65" height="38.2677"/>
			<path d="M0 254.25 A25.5118 25.5118 0 0 1 51.02 254.25 A25.5118 25.5118 0 1 1 0 254.25 Z" class="st5"/>
			<text x="10.52" y="258.45" class="st6" v:langID="1031"><v:paragraph v:horizAlign="1"/><v:tabList/>s2, i2</text>		</g>
		<g id="shape26-50" v:mID="26" v:groupContext="shape" transform="translate(30.3683,-72.5552)">
			<title>Kreis.26</title>
			<desc>s3, i1</desc>
			<v:userDefs>
				<v:ud v:nameU="visVersion" v:val="VT0(15):26"/>
			</v:userDefs>
			<v:textBlock v:margins="rect(4,4,4,4)" v:tabSpace="42.5197"/>
			<v:textRect cx="25.5118" cy="254.254" width="44.65" height="38.2677"/>
			<path d="M0 254.25 A25.5118 25.5118 0 0 1 51.02 254.25 A25.5118 25.5118 0 1 1 0 254.25 Z" class="st5"/>
			<text x="10.52" y="258.45" class="st6" v:langID="1031"><v:paragraph v:horizAlign="1"/><v:tabList/>s3, i1</text>		</g>
		<g id="shape27-53" v:mID="27" v:groupContext="shape" transform="translate(92.7305,-72.5552)">
			<title>Kreis.27</title>
			<desc>s3, i2</desc>
			<v:userDefs>
				<v:ud v:nameU="visVersion" v:val="VT0(15):26"/>
			</v:userDefs>
			<v:textBlock v:margins="rect(4,4,4,4)" v:tabSpace="42.5197"/>
			<v:textRect cx="25.5118" cy="254.254" width="44.65" height="38.2677"/>
			<path d="M0 254.25 A25.5118 25.5118 0 0 1 51.02 254.25 A25.5118 25.5118 0 1 1 0 254.25 Z" class="st5"/>
			<text x="10.52" y="258.45" class="st6" v:langID="1031"><v:paragraph v:horizAlign="1"/><v:tabList/>s3, i2</text>		</g>
		<g id="shape28-56" v:mID="28" v:groupContext="shape" transform="translate(155.093,-72.5552)">
			<title>Kreis.28</title>
			<desc>s3, i3</desc>
			<v:userDefs>
				<v:ud v:nameU="visVersion" v:val="VT0(15):26"/>
			</v:userDefs>
			<v:textBlock v:margins="rect(4,4,4,4)" v:tabSpace="42.5197"/>
			<v:textRect cx="25.5118" cy="254.254" width="44.65" height="38.2677"/>
			<path d="M0 254.25 A25.5118 25.5118 0 0 1 51.02 254.25 A25.5118 25.5118 0 1 1 0 254.25 Z" class="st5"/>
			<text x="10.52" y="258.45" class="st6" v:langID="1031"><v:paragraph v:horizAlign="1"/><v:tabList/>s3, i3</text>		</g>
		<g id="shape30-59" v:mID="30" v:groupContext="shape" transform="translate(30.3683,-10.193)">
			<title>Kreis.30</title>
			<desc>s4, i1</desc>
			<v:userDefs>
				<v:ud v:nameU="visVersion" v:val="VT0(15):26"/>
			</v:userDefs>
			<v:textBlock v:margins="rect(4,4,4,4)" v:tabSpace="42.5197"/>
			<v:textRect cx="25.5118" cy="254.254" width="44.65" height="38.2677"/>
			<path d="M0 254.25 A25.5118 25.5118 0 0 1 51.02 254.25 A25.5118 25.5118 0 1 1 0 254.25 Z" class="st5"/>
			<text x="10.52" y="258.45" class="st6" v:langID="1031"><v:paragraph v:horizAlign="1"/><v:tabList/>s4, i1</text>		</g>
		<g id="shape31-62" v:mID="31" v:groupContext="shape" transform="translate(92.7305,-10.193)">
			<title>Kreis.31</title>
			<desc>s4, i2</desc>
			<v:userDefs>
				<v:ud v:nameU="visVersion" v:val="VT0(15):26"/>
			</v:userDefs>
			<v:textBlock v:margins="rect(4,4,4,4)" v:tabSpace="42.5197"/>
			<v:textRect cx="25.5118" cy="254.254" width="44.65" height="38.2677"/>
			<path d="M0 254.25 A25.5118 25.5118 0 0 1 51.02 254.25 A25.5118 25.5118 0 1 1 0 254.25 Z" class="st5"/>
			<text x="10.52" y="258.45" class="st6" v:langID="1031"><v:paragraph v:horizAlign="1"/><v:tabList/>s4, i2</text>		</g>
		<g id="shape32-65" v:mID="32" v:groupContext="shape" transform="translate(155.093,-10.193)">
			<title>Kreis.32</title>
			<desc>s4, i3</desc>
			<v:userDefs>
				<v:ud v:nameU="visVersion" v:val="VT0(15):26"/>
			</v:userDefs>
			<v:textBlock v:margins="rect(4,4,4,4)" v:tabSpace="42.5197"/>
			<v:textRect cx="25.5118" cy="254.254" width="44.65" height="38.2677"/>
			<path d="M0 254.25 A25.5118 25.5118 0 0 1 51.02 254.25 A25.5118 25.5118 0 1 1 0 254.25 Z" class="st5"/>
			<text x="10.52" y="258.45" class="st6" v:langID="1031"><v:paragraph v:horizAlign="1"/><v:tabList/>s4, i3</text>		</g>
		<g id="shape33-68" v:mID="33" v:groupContext="shape" transform="translate(217.455,-10.193)">
			<title>Kreis.33</title>
			<desc>s4, i4</desc>
			<v:userDefs>
				<v:ud v:nameU="visVersion" v:val="VT0(15):26"/>
			</v:userDefs>
			<v:textBlock v:margins="rect(4,4,4,4)" v:tabSpace="42.5197"/>
			<v:textRect cx="25.5118" cy="254.254" width="44.65" height="38.2677"/>
			<path d="M0 254.25 A25.5118 25.5118 0 0 1 51.02 254.25 A25.5118 25.5118 0 1 1 0 254.25 Z" class="st5"/>
			<text x="10.52" y="258.45" class="st6" v:langID="1031"><v:paragraph v:horizAlign="1"/><v:tabList/>s4, i4</text>		</g>
		<g id="shape35-71" v:mID="35" v:groupContext="shape" transform="translate(26.1164,-1.19301)">
			<title>Rechteck</title>
			<v:userDefs>
				<v:ud v:nameU="visVersion" v:val="VT0(15):26"/>
			</v:userDefs>
			<rect x="0" y="24.648" width="59.5276" height="255.118" class="st7"/>
		</g>
		<g id="shape36-73" v:mID="36" v:groupContext="shape" transform="translate(88.4786,-1.19301)">
			<title>Rechteck.36</title>
			<v:userDefs>
				<v:ud v:nameU="visVersion" v:val="VT0(15):26"/>
			</v:userDefs>
			<rect x="0" y="24.648" width="59.5276" height="255.118" class="st7"/>
		</g>
		<g id="shape37-75" v:mID="37" v:groupContext="shape" transform="translate(150.841,-65.9906)">
			<title>Rechteck.37</title>
			<v:userDefs>
				<v:ud v:nameU="visVersion" v:val="VT0(15):26"/>
			</v:userDefs>
			<rect x="0" y="89.4455" width="59.5276" height="190.321" class="st7"/>
		</g>
		<g id="group59-77" transform="translate(26.1158,-257.089)" v:mID="59" v:groupContext="group">
			<title>Tabelle.59</title>
			<g id="shape40-78" v:mID="40" v:groupContext="shape" transform="translate(-1.19904E-14,0.769404)">
				<title>Rechteck.40</title>
				<desc>Round 1</desc>
				<v:userDefs>
					<v:ud v:nameU="visVersion" v:val="VT0(15):26"/>
				</v:userDefs>
				<v:textBlock v:margins="rect(4,4,4,4)" v:tabSpace="42.5197"/>
				<v:textRect cx="29.7638" cy="268.427" width="59.53" height="22.6772"/>
				<rect x="0" y="257.089" width="59.5276" height="22.6772" class="st8"/>
				<text x="9.1" y="272.03" class="st4" v:langID="1031"><v:paragraph v:horizAlign="1"/><v:tabList/>Round 1</text>			</g>
			<g id="shape41-83" v:mID="41" v:groupContext="shape" transform="translate(62.3622,0.769404)">
				<title>Rechteck.41</title>
				<desc>Round 2</desc>
				<v:userDefs>
					<v:ud v:nameU="visVersion" v:val="VT0(15):26"/>
				</v:userDefs>
				<v:textBlock v:margins="rect(4,4,4,4)" v:tabSpace="42.5197"/>
				<v:textRect cx="29.7638" cy="268.427" width="59.53" height="22.6772"/>
				<rect x="0" y="257.089" width="59.5276" height="22.6772" class="st8"/>
				<text x="9.1" y="272.03" class="st4" v:langID="1031"><v:paragraph v:horizAlign="1"/><v:tabList/>Round 2</text>			</g>
			<g id="shape42-87" v:mID="42" v:groupContext="shape" transform="translate(124.724,0.769404)">
				<title>Rechteck.42</title>
				<desc>Round 3</desc>
				<v:userDefs>
					<v:ud v:nameU="visVersion" v:val="VT0(15):26"/>
				</v:userDefs>
				<v:textBlock v:margins="rect(4,4,4,4)" v:tabSpace="42.5197"/>
				<v:textRect cx="29.7638" cy="268.427" width="59.53" height="22.6772"/>
				<rect x="0" y="257.089" width="59.5276" height="22.6772" class="st8"/>
				<text x="9.1" y="272.03" class="st4" v:langID="1031"><v:paragraph v:horizAlign="1"/><v:tabList/>Round 3</text>			</g>
		</g>
	</g>
</svg>
